<svg width="210" height="210" xmlns="http://www.w3.org/2000/svg">
 <style type="text/css">.st0{fill:#DD0031;}
	.st1{fill:#C3002F;}
	.st2{fill:#FFFFFF;}</style>

 <g>
  <title>background</title>
  <rect fill="none" id="canvas_background" height="212" width="212" y="-1" x="-1"/>
 </g>
 <g>
  <title>Layer 1</title>
  <g id="svg_1">
   <polygon id="svg_2" points="106,6 106,6 106,6 12.899999618530273,39.20000076293945 27.099998474121094,162.3000030517578 106,206 106,206 106,206 184.89999389648438,162.3000030517578 199.10000610351562,39.20000076293945 " class="st0"/>
   <polygon id="svg_3" points="106,6 106,28.200000762939453 106,28.099998474121094 106,129.39999389648438 106,129.39999389648438 106,206 106,206 184.89999389648438,162.3000030517578 199.10000610351562,39.20000076293945 106,6 " class="st1"/>
   <path id="svg_4" d="m106,28.1l-58.2,130.5l0,0l21.7,0l0,0l11.7,-29.2l49.4,0l11.7,29.2l0,0l21.7,0l0,0l-58,-130.5l0,0l0,0l0,0l0,0zm17,83.3l-34,0l17,-40.9l17,40.9z" class="st2"/>
  </g>
 </g>
</svg>